<svg width="8" height="8" viewBox="0 0 8 8" fill="none" xmlns="http://www.w3.org/2000/svg">
<path d="M5.51636 4L7.79068 1.72568C8.06977 1.44659 8.06977 0.994091 7.79068 0.714773L7.28523 0.209318C7.00614 -0.0697727 6.55364 -0.0697727 6.27432 0.209318L4 2.48364L1.72568 0.209318C1.44659 -0.0697727 0.994091 -0.0697727 0.714773 0.209318L0.209318 0.714773C-0.0697727 0.993864 -0.0697727 1.44636 0.209318 1.72568L2.48364 4L0.209318 6.27432C-0.0697727 6.55341 -0.0697727 7.00591 0.209318 7.28523L0.714773 7.79068C0.993864 8.06977 1.44659 8.06977 1.72568 7.79068L4 5.51636L6.27432 7.79068C6.55341 8.06977 7.00614 8.06977 7.28523 7.79068L7.79068 7.28523C8.06977 7.00614 8.06977 6.55364 7.79068 6.27432L5.51636 4Z" fill="#FF5858"/>
</svg>