<svg width="22" height="17" viewBox="0 0 22 17" fill="none" xmlns="http://www.w3.org/2000/svg">
<path d="M7.7 8.34483C8.57024 8.34483 9.42093 8.10012 10.1445 7.64165C10.8681 7.18318 11.432 6.53154 11.7651 5.76913C12.0981 5.00672 12.1852 4.16779 12.0155 3.35842C11.8457 2.54905 11.4266 1.8056 10.8113 1.22207C10.1959 0.638551 9.41191 0.241167 8.5584 0.0801736C7.70488 -0.0808199 6.82019 0.00180783 6.01619 0.317608C5.2122 0.633408 4.52501 1.1682 4.04153 1.85435C3.55806 2.5405 3.3 3.34719 3.3 4.17242C3.3 5.27901 3.76357 6.34028 4.58873 7.12276C5.41389 7.90524 6.53305 8.34483 7.7 8.34483ZM11 10.431C11.0025 10.0826 11.0983 9.74051 11.2784 9.43683C11.1134 9.42053 10.9519 9.38793 10.78 9.38793H10.2059C9.42021 9.73153 8.56525 9.90947 7.7 9.90947C6.83475 9.90947 5.97979 9.73153 5.19406 9.38793H4.62C3.39478 9.38819 2.21983 9.84985 1.35347 10.6714C0.48711 11.4929 0.000273394 12.6071 0 13.769L0 15.125C0 15.54 0.173839 15.9379 0.483274 16.2314C0.792709 16.5248 1.21239 16.6897 1.65 16.6897H11.3059C11.1082 16.3738 11.0026 16.0138 11 15.6466V10.431ZM20.9 9.38793H19.8V6.78017C19.8 6.08855 19.5103 5.42526 18.9945 4.93621C18.4788 4.44716 17.7793 4.17242 17.05 4.17242C16.3207 4.17242 15.6212 4.44716 15.1055 4.93621C14.5897 5.42526 14.3 6.08855 14.3 6.78017V9.38793H13.2C12.9083 9.38793 12.6285 9.49783 12.4222 9.69345C12.2159 9.88907 12.1 10.1544 12.1 10.431V15.6466C12.1 15.9232 12.2159 16.1885 12.4222 16.3841C12.6285 16.5798 12.9083 16.6897 13.2 16.6897H20.9C21.1917 16.6897 21.4715 16.5798 21.6778 16.3841C21.8841 16.1885 22 15.9232 22 15.6466V10.431C22 10.1544 21.8841 9.88907 21.6778 9.69345C21.4715 9.49783 21.1917 9.38793 20.9 9.38793ZM17.05 14.0819C16.8324 14.0819 16.6198 14.0207 16.4389 13.9061C16.258 13.7915 16.117 13.6286 16.0337 13.438C15.9505 13.2474 15.9287 13.0376 15.9711 12.8353C16.0136 12.633 16.1183 12.4471 16.2722 12.3012C16.426 12.1553 16.622 12.056 16.8354 12.0157C17.0488 11.9755 17.27 11.9961 17.471 12.0751C17.672 12.154 17.8437 12.2877 17.9646 12.4593C18.0855 12.6308 18.15 12.8325 18.15 13.0388C18.15 13.3154 18.0341 13.5808 17.8278 13.7764C17.6215 13.972 17.3417 14.0819 17.05 14.0819ZM18.15 9.38793H15.95V6.78017C15.95 6.50353 16.0659 6.23821 16.2722 6.04259C16.4785 5.84697 16.7583 5.73707 17.05 5.73707C17.3417 5.73707 17.6215 5.84697 17.8278 6.04259C18.0341 6.23821 18.15 6.50353 18.15 6.78017V9.38793Z" fill="#8F8F8F"/>
</svg>